<?xml version="1.0" encoding="utf-8"?>
<!-- Generator: Adobe Illustrator 26.5.0, SVG Export Plug-In . SVG Version: 6.00 Build 0)  -->
<svg version="1.1" id="Layer_1" xmlns="http://www.w3.org/2000/svg" xmlns:xlink="http://www.w3.org/1999/xlink" x="0px" y="0px"
	 viewBox="0 0 833.26 266.98" style="enable-background:new 0 0 833.26 266.98;" xml:space="preserve">
<style type="text/css">
	.st0{fill:#E59130;}
</style>
<path class="st0" d="M599.05,229.2v-43.13c0-8.68,1.28-15.99,3.84-21.9c2.58-5.92,6.07-10.6,10.53-14.2
	c4.26-3.35,9.2-5.78,14.87-7.34c5.68-1.56,11.54-2.37,17.56-2.37c0.44,0,1,0,1.66,0c0.68,0,1.24,0,1.67,0v16.08
	c0,4.25-3.44,7.69-7.69,7.69h0c-6.47,0-11.24,1.53-14.36,4.66c-3.12,3.12-4.69,8.04-4.69,14.7v45.81H599.05z"/>
<path class="st0" d="M803.46,200.19h16.72c-2.45,9.37-7.13,16.49-14.05,21.4c-6.9,5.11-15.6,7.67-26.07,7.67
	c-12.7,0-22.61-4.1-29.74-12.33c-7.13-8.06-10.69-19.5-10.69-34.46c0-14.26,3.43-25.39,10.35-33.43
	c7.14-8.26,17.05-12.39,29.76-12.39c13.36,0,23.72,4.02,31.08,12.05c7.14,8.23,10.69,19.72,10.69,34.46c0,0.86,0,1.65,0,2.32
	c0,0.7,0,1.12,0,1.34c0,1.12-0.12,1.9-0.34,2.34h-57.83c0.24,6.89,1.9,12.03,5.03,15.37c2.89,3.57,7.25,5.36,13.03,5.36
	c3.79,0,7.02-0.78,9.7-2.34c0.66-0.22,1.28-0.61,1.84-1.17c0.55-0.59,1.16-1.17,1.83-1.84c0.23-0.67,1.05-1.59,2.51-2.65
	C798.72,200.75,800.79,200.19,803.46,200.19z M763.34,174.13h34.11c-0.45-6.03-2.01-10.49-4.69-13.36
	c-2.87-3.12-7.02-4.69-12.37-4.69c-4.89,0-8.89,1.56-12.02,4.69C765.24,163.89,763.58,168.36,763.34,174.13z"/>
<path class="st0" d="M477.52,229.24h-23.74L422.7,140.3h24.72l17.72,62.52l15.71-54.49c1.81-5.33,5.36-8.04,10.69-8.04h17.41
	L477.52,229.24z"/>
<path class="st0" d="M572.13,200.17h16.66c-2.43,9.37-7.14,16.49-13.98,21.4c-6.95,5.11-15.62,7.67-26.12,7.67
	c-12.69,0-22.6-4.1-29.74-12.33c-7.14-8.06-10.69-19.5-10.69-34.46c0-14.26,3.4-25.39,10.35-33.43
	c7.11-8.26,17.05-12.39,29.71-12.39c13.39,0,23.8,4.02,31.11,12.05c7.11,8.23,10.69,19.72,10.69,34.46c0,0.86,0,1.65,0,2.32
	c0,0.7,0,1.12,0,1.34c0,1.12-0.11,1.9-0.31,2.34h-57.84c0.22,6.89,1.9,12.03,4.99,15.37c2.9,3.57,7.25,5.36,13.06,5.36
	c3.77,0,7.03-0.78,9.68-2.34c0.7-0.22,1.31-0.61,1.87-1.17c0.56-0.59,1.14-1.17,1.84-1.84c0.2-0.67,1.03-1.59,2.51-2.65
	C567.36,200.73,569.42,200.17,572.13,200.17z M531.98,174.11h34.09c-0.45-6.03-1.98-10.49-4.69-13.36c-2.87-3.12-7-4.69-12.36-4.69
	c-4.91,0-8.93,1.56-12.05,4.69C533.88,163.87,532.2,168.34,531.98,174.11z"/>
<path class="st0" d="M704.42,161.98v-0.1c0-2.93-2.23-4.52-6.85-4.52h-8.23c-4.29,0-6.85,1.59-6.85,4.52v8.62
	c0,1.61,1.18,3.07,3.09,3.98c0.52,0.26,1.1,0.48,1.74,0.64l25.2,6.22c9.14,2.27,15.2,8.07,15.2,14.59v17.03
	c0,10.6-8.56,16.24-24.67,16.24h-19.18c-3.82,0-7.21-0.34-10.19-0.98c-9.42-2.02-14.48-7.2-14.48-15.26v-19.09
	c12.86,0,23.29,3.45,23.29,12.03v0.38c0,3.05,2.56,4.52,6.85,4.52h8.23c3.58,0,5.8-0.96,6.54-2.92c0.17-0.48,0.31-1,0.31-1.6v-7.85
	c0-2.16-2.11-4.08-5.2-4.71l-23.65-4.91c-9.74-2.02-16.37-8.03-16.37-14.85v-12.37c0-12.5,10.39-22.63,23.21-22.63h20.64
	c16.11,0,24.67,5.64,24.67,16.24V174c-12.06,0-21.98-2.59-23.17-10.43C704.46,163.05,704.42,162.51,704.42,161.98z"/>
<path class="st0" d="M114.94,186.83c-1.12,13.36-6.13,23.85-15.04,31.42c-9.14,7.37-21.18,11.02-36.1,11.02
	c-17.38,0-30.64-5.22-39.78-15.71c-9.14-10.02-13.68-24.83-13.68-44.45c0-20.06,4.67-35.1,14.02-45.11
	c9.61-10.49,23.4-15.71,41.47-15.71c14.68,0,26.37,3.66,35.09,11.02c8.24,7.14,12.91,17.16,14.03,30.08h-14.39
	c-5.32,0-9.13-2.34-11.34-7.03c-1.58-2.9-3.47-5.44-5.69-7.67c-4.46-3.35-10.36-5.02-17.71-5.02c-10.25,0-18.18,3.35-23.75,10.02
	c-5.35,6.72-8.02,16.49-8.02,29.43c0,12.47,2.67,22.04,8.02,28.77c5.14,6.89,12.83,10.32,23.08,10.32c7.11,0,13.02-1.79,17.7-5.33
	c4.22-3.35,7.23-8.71,9.03-16.04H114.94z"/>
<path class="st0" d="M121.51,229.26v-43.13c0-8.68,1.28-15.99,3.84-21.9c2.58-5.92,6.07-10.6,10.53-14.2
	c4.26-3.35,9.2-5.78,14.87-7.34c5.68-1.56,11.54-2.37,17.56-2.37c0.44,0,1,0,1.66,0c0.68,0,1.24,0,1.67,0v16.08
	c0,4.25-3.44,7.69-7.69,7.69l0,0c-6.47,0-11.24,1.53-14.36,4.66c-3.12,3.12-4.69,8.04-4.69,14.7v45.81H121.51z"/>
<path class="st0" d="M237.57,201.29h16.08c-2.36,9.02-6.86,15.86-13.51,20.59c-6.64,4.91-15.01,7.38-25.08,7.38
	c-12.22,0-21.75-3.95-28.61-11.86c-6.86-7.76-10.28-18.76-10.28-33.15c0-13.72,3.3-24.43,9.96-32.16
	c6.86-7.94,16.4-11.92,28.63-11.92c12.85,0,22.82,3.87,29.9,11.6c6.86,7.92,10.29,18.98,10.29,33.15c0,0.83,0,1.58,0,2.23
	c0,0.67,0,1.07,0,1.29c0,1.07-0.11,1.83-0.33,2.26h-55.64c0.24,6.63,1.83,11.57,4.84,14.79c2.78,3.44,6.97,5.15,12.54,5.15
	c3.65,0,6.76-0.75,9.33-2.26c0.64-0.21,1.23-0.59,1.77-1.13c0.53-0.56,1.11-1.13,1.76-1.77c0.22-0.64,1.01-1.53,2.42-2.55
	C233.02,201.83,235.01,201.29,237.57,201.29z M198.98,176.22h32.81c-0.44-5.8-1.93-10.09-4.52-12.86c-2.76-3.01-6.75-4.51-11.9-4.51
	c-4.7,0-8.56,1.5-11.56,4.51C200.81,166.37,199.21,170.67,198.98,176.22z"/>
<path class="st0" d="M317.53,224.14c-4.51,2.36-9.29,3.78-14.31,4.32c-5.05,0.56-9.47,0.8-13.34,0.8c-7.73,0-14.48-2.07-20.26-6.25
	c-5.8-4.16-8.69-11.11-8.69-20.75c0-9.02,2.63-15.43,7.88-19.3c5.26-3.86,11.94-6.44,20.07-7.7c1.1,0,2.36-0.16,3.89-0.48
	c1.48-0.32,3.19-0.59,5.15-0.81c9.39-1.32,14.12-4.05,14.12-8.38c0-3.22-1.66-5.31-4.97-6.25c-3.33-0.97-6.39-1.45-9.15-1.45
	c-3.01,0-5.72,0.43-8.05,1.29c-2.36,0.83-4.08,2.44-5.15,4.83h-21.55c0.86-6.66,3.86-12.13,9.01-16.4
	c5.78-4.97,14.05-7.44,24.76-7.44c12,0,21.02,2.04,27.03,6.15c6.2,4.27,9.31,10.28,9.31,17.98v29.26c0,8.59-1.53,15.3-4.64,20.1
	C325.53,218.5,321.82,221.99,317.53,224.14z M312.37,184.57c-3.01,1.53-7.17,2.9-12.54,4.19l-7.38,1.61
	c-3.86,1.05-6.66,2.47-8.36,4.16c-1.52,2.39-2.25,4.72-2.25,7.09c0,3.22,0.97,5.77,2.88,7.73c1.91,1.69,4.72,2.55,8.35,2.55
	c6.01,0,10.74-1.69,14.17-5.13c3.44-3.41,5.13-8.13,5.13-14.15V184.57z"/>
<path class="st0" d="M381.74,229c-7.4,0.45-15.43,0.31-24.1-0.34c-8.67-0.68-12.98-6.19-12.98-16.52v-99.15h12.11
	c2.93,0,5.54,1.1,7.77,3.35c2.28,2.25,3.38,4.96,3.38,8.11v15.17h13.82v4.7c0,3.38-1.1,6.16-3.35,8.28
	c-2.25,2.14-4.96,3.21-8.11,3.21h-2.37v49.91c0,3.83,2.25,5.71,6.76,5.71h7.07V229z"/>
<g>
	<path class="st0" d="M365,69.4c-0.7-1.6-1.79-2.21-3.35-1.96c-0.72,0.12-1.44,0.26-2.11,0.55c-0.43,0.19-0.72,0.06-1.02-0.23
		c-1.01-1-1.48-2.25-1.72-3.61c-0.33-1.84-0.1-3.64,0.62-5.34c1.19-2.83,3.98-4.21,7.13-3.64c0.55,0.1,1.09,0.22,1.69,0.34
		c-0.31-0.98-1.06-1.27-1.86-1.46c-0.29-0.07-0.6-0.1-0.9-0.14c-1.1-0.14-1.1-0.14-1.27-1.25c-0.3-1.99,0.03-3.88,1.01-5.63
		c1.18-2.1,2.43-4.16,3.62-6.25c0.87-1.53,1.68-3.09,1.98-4.86c0.13-0.75,0.08-1.49,0.08-2.24c0.19-0.12,0.31,0.04,0.43,0.11
		c1.58,0.93,2.59,2.29,3.07,4.05c0.38,1.41,0.61,2.85,0.88,4.28c0.04,0.22-0.04,0.59,0.37,0.58c0.35-0.01,0.3-0.32,0.36-0.54
		c0.28-1.18,0.13-2.33-0.21-3.47c-0.26-0.87-0.56-1.73-0.82-2.6c-0.22-0.76-0.04-1.41,0.38-2.11c0.68-1.13,1.66-1.98,2.5-2.95
		c1.61-1.86,2.91-3.92,3.79-6.3c1.02,0.87,1.6,1.92,1.87,3.16c0.25,1.16,0.23,2.33,0.22,3.51c0,0.58,0,1.17,0,1.91
		c0.55-0.5,0.69-1.03,0.76-1.58c0.14-1.16,0.14-2.34,0.35-3.5c0.07-0.38,0.16-0.76,0.44-1.05c1.84-1.92,2.66-4.3,3.11-6.85
		c0.23-1.32,0.27-2.66,0.59-3.96c0.03-0.12,0.04-0.24,0.2-0.33c0.93,3.27,1.7,6.52,0.67,9.9c-0.49,1.62-1.43,2.99-2.45,4.3
		c-2.62,3.38-4.96,6.96-7.43,10.44c-1.28,1.8-2.46,3.66-3.62,5.53c-1.54,2.49-2.18,5.24-2.44,8.12c-0.15,1.68-0.18,3.36-0.13,5.04
		c0.03,1.11-0.29,2.16-0.47,3.23c-0.51,3.05,0.54,5.61,2.5,7.88c1.64,1.9,3.69,3.34,5.66,4.85c1.8,1.38,3.59,2.77,5.06,4.53
		c1.19,1.43,1.89,3.1,2.42,4.85c0.08,0.27,0.02,0.4-0.24,0.51c-1.11,0.48-2.23,0.97-3.33,1.47c-0.28,0.13-0.43,0.04-0.61-0.18
		c-0.84-1.01-1.7-2.01-2.54-3.02c-1.86-2.23-4.18-3.68-7.08-4.1c-0.87-0.13-1.74-0.14-2.59,0.08c-1.82,0.47-2.64,2.01-2.03,3.79
		c0.14,0.4,0.32,0.79,0.58,1.13c0.39,0.51,0.3,0.92-0.09,1.4c-1.06,1.3-2.44,1.8-4.01,1.35c-3.79-1.1-6.38-3.57-7.78-7.24
		c-0.69-1.8-1.19-3.66-0.88-5.63c0.28-1.76,1.11-3.25,2.36-4.49c1.16-1.15,2.64-1.2,4.15-0.95C363.56,68.91,364.23,69.14,365,69.4z"
		/>
	<path class="st0" d="M422.31,33.05c0.05-1.14-0.15-2.24-0.33-3.33c-0.24-1.46-0.05-2.81,0.73-4.08c0.29-0.48,0.54-0.99,0.8-1.49
		c0.22,0.09,0.2,0.28,0.25,0.42c0.6,1.74,1.64,3.2,2.92,4.5c1.03,1.06,2.1,2.08,3.13,3.15c0.36,0.38,0.69,0.8,0.98,1.23
		c0.45,0.65,0.59,1.37,0.35,2.14c-0.16,0.48-0.28,0.98-0.52,1.42c-0.76,1.35-0.73,2.75-0.33,4.18c0.14,0.5,0.26,1,0.54,1.55
		c0.28-1.56,0.39-3.05,0.63-4.52c0.28-1.69,1.09-3.02,2.35-4.12c0.43-0.37,0.87-0.72,1.37-1.14c0.19,0.85,0.3,1.64,0.52,2.4
		c0.59,2.01,1.56,3.87,2.57,5.69c1.69,3.05,2.64,6.33,3.23,9.74c0.12,0.68-0.06,1.33-0.12,1.99c-0.03,0.32-0.29,0.35-0.52,0.42
		c-0.74,0.23-1.53,0.18-2.28,0.35c-0.66,0.15-1.26,0.39-1.79,0.96c0.85,0.07,1.61-0.01,2.35-0.14c2.49-0.43,4.6,0.23,6.3,2.13
		c0.64,0.71,1.25,1.43,1.78,2.23c1.07,1.63,1.31,3.36,0.7,5.21c-0.29,0.89-0.65,1.74-1.06,2.58c-0.47,0.95-0.82,1.11-1.85,0.83
		c-0.96-0.26-1.93-0.46-2.93-0.31c-1.11,0.17-2.11,0.61-2.98,1.36c0.63-0.09,1.27-0.19,1.9-0.28c3.85-0.56,7.58,2.13,8.24,5.95
		c1.03,5.94-3.84,12.12-9.87,12.51c-0.67,0.04-1.34-0.01-1.98-0.24c-0.9-0.33-1.26-1.08-0.97-1.99c0.09-0.29,0.24-0.56,0.37-0.83
		c0.14-0.29,0.32-0.57,0.45-0.86c0.72-1.6,0.25-2.87-1.35-3.59c-1.59-0.72-3.21-0.77-4.84-0.14c-2.42,0.94-4.26,2.61-5.79,4.66
		c-0.75,1.01-1.49,2.02-2.21,3.05c-0.21,0.3-0.37,0.32-0.69,0.17c-1.11-0.54-2.23-1.05-3.36-1.55c-0.35-0.15-0.41-0.32-0.33-0.69
		c0.67-3.33,2.56-5.85,5.16-7.91c1.83-1.45,3.77-2.73,5.77-3.92c3.22-1.91,4.67-4.81,4.82-8.46c0.05-1.17-0.26-2.24-1-3.17
		c-0.93-1.16-1.11-2.54-1.07-3.96c0.06-2.28-0.07-4.53-0.55-6.76c-0.94-4.31-2.98-8.06-5.82-11.4c-2.28-2.69-4.79-5.17-7.04-7.89
		c-1.62-1.97-3.05-4.05-3.66-6.57c-0.69-2.82-0.74-5.65,0.17-8.44c0.07-0.2,0.08-0.44,0.3-0.6c0.58,2.45,1.17,4.87,1.74,7.31
		c0.12,0.53,0.35,0.98,0.69,1.4c1.7,2.12,2.84,4.46,2.97,7.23C421.19,32.16,421.9,32.5,422.31,33.05z"/>
	<path class="st0" d="M402.46,83.47c8.4,0,16.11,2.37,23.26,6.7c1.09,0.66,1.91,1.56,2.4,2.74c0.46,1.11-0.02,1.82-1.23,1.85
		c-1.12,0.02-2.13-0.26-3.1-0.86c-4.55-2.79-9.51-4.42-14.79-5.12c-3.46-0.46-6.94-0.62-10.41-0.2c-3.9,0.47-7.64,1.55-11.31,2.92
		c-2.45,0.91-4.76,2.14-7.09,3.31c-0.77,0.39-1.5,0.26-2.23,0.02c-0.53-0.18-0.52-0.74-0.51-1.2c0.01-0.47,0.2-0.9,0.41-1.32
		c0.93-1.86,2.48-3.1,4.3-3.94c4.68-2.17,9.54-3.8,14.67-4.52C398.69,83.58,400.58,83.49,402.46,83.47z"/>
	<path class="st0" d="M396.18,18.98c2.67,2.22,4.73,4.79,4.81,8.49c0.19,8.18,0.22,16.37,0.23,24.55c0,1.7-0.46,3.18-1.6,4.45
		c-0.91,1.02-1.59,2.2-2.3,3.35c-0.26,0.42-0.46,0.42-0.84,0.15c-0.79-0.57-1.6-1.1-2.42-1.62c-0.3-0.19-0.4-0.35-0.26-0.72
		c1.63-4.29,2.8-8.7,3.47-13.23c0.61-4.1,0.81-8.21,0.6-12.35c-0.16-3.16-0.6-6.28-1.09-9.4C396.58,21.43,396.31,20.23,396.18,18.98
		z"/>
	<path class="st0" d="M433.35,64.5c0.01,2.67-0.84,4.48-2.48,5.92c-1.65,1.44-3.56,2.54-5.36,3.78c-2.04,1.41-3.96,2.95-5.49,4.93
		c-1.05,1.36-1.84,2.85-2.38,4.48c-0.27,0.82-0.51,0.95-1.32,0.72c-0.6-0.17-1.2-0.37-1.81-0.51c-0.44-0.1-0.5-0.27-0.39-0.7
		c0.93-3.88,3.1-6.93,6.12-9.46c1.84-1.54,3.75-2.96,5.75-4.27c1.05-0.69,1.81-1.61,2.36-2.71c0.54-1.07,0.39-2.03-0.41-2.77
		c-1-0.93-2.13-1.1-3.16-0.47c-0.79,0.48-1.39,1.17-2,1.85c-0.3,0.33-0.49,0.33-0.74-0.02c-0.18-0.25-0.39-0.46-0.58-0.7
		c-0.55-0.72-0.58-1.47-0.17-2.27c1.15-2.26,3.91-3.73,6.48-3.46c2.09,0.22,3.84,0.98,4.87,2.92
		C433.17,62.75,433.36,63.84,433.35,64.5z"/>
	<path class="st0" d="M407.67,18.9c-0.62,2.37-1.14,4.68-1.53,7.01c-0.8,4.79-1.06,9.61-0.58,14.46c0.59,6.02,2.32,11.68,5.17,17.01
		c0.26,0.48,0.19,0.69-0.27,0.92c-0.5,0.26-0.98,0.57-1.45,0.89c-0.29,0.2-0.46,0.18-0.7-0.1c-0.93-1.1-1.89-2.17-2.83-3.25
		c-0.32-0.37-0.65-0.73-1.11-0.92c-1.46-0.6-2.04-1.78-2.05-3.27c-0.03-2.92-0.02-5.83-0.04-8.75c-0.03-4.92-0.09-9.84-0.11-14.76
		C402.16,24.2,404.23,20.95,407.67,18.9z"/>
	<path class="st0" d="M372.3,63.72c0.01-2.08,0.81-3.49,2.51-4.31c1.29-0.62,2.63-1.05,4.1-0.78c0.78,0.14,1.46,0.48,2.05,0.99
		c0.92,0.79,1.67,1.71,2.25,2.76c0.51,0.92,0.46,1.29-0.28,2.04c-0.11,0.11-0.25,0.21-0.35,0.33c-0.3,0.36-0.53,0.38-0.8-0.07
		c-0.36-0.58-0.82-1.11-1.38-1.53c-0.75-0.57-1.45-0.6-2.25-0.11c-1.75,1.06-1.99,2.58-0.61,4.09c1.94,2.13,4.06,4.04,6.51,5.62
		c3.87,2.49,6.14,6.13,7.23,10.55c0.08,0.31-0.02,0.4-0.27,0.46c-0.72,0.19-1.45,0.37-2.17,0.58c-0.4,0.12-0.66-0.03-0.77-0.37
		c-1.24-3.94-4.11-6.56-7.24-8.97c-1.41-1.09-2.84-2.15-4.21-3.29c-2.09-1.74-3.69-3.81-4.15-6.58
		C372.39,64.6,372.34,64.06,372.3,63.72z"/>
	<path class="st0" d="M395.69,99.21c0.02-1.36,0.17-2.63,0.53-3.86c0.94-3.19,3.77-5.45,7.03-5.6c3.22-0.15,5.91,1.7,7.2,4.91
		c0.68,1.69,0.64,3.43,0.58,5.2c-0.1,2.89-1.16,5.47-2.4,8.01c-0.12,0.25-0.22,0.36-0.54,0.28c-1.35-0.32-1.4-0.37-1.1-1.74
		c0.42-1.94,0.91-3.86,0.98-5.85c0.09-2.42-0.49-4.58-2.51-6.14c-1.57-1.22-3.2-1.04-4.51,0.46c-1.57,1.8-2.11,3.92-2,6.25
		c0.1,2.11,0.59,4.16,0.96,6.23c0.08,0.43-0.07,0.53-0.41,0.61c-0.78,0.18-1.42-0.06-1.78-0.8
		C396.51,104.63,395.71,101.97,395.69,99.21z"/>
	<path class="st0" d="M415.29,13.9c-0.18,0.54-0.29,0.96-0.46,1.37c-1.94,4.54-1.32,8.88,0.97,13.11c1.15,2.12,2.63,3.98,4.25,5.75
		c1.83,2,3.83,3.85,5.51,5.98c3.13,3.96,5.04,8.45,5.77,13.44c0.23,1.59,0.14,3.19,0.16,4.79c0,0.24-0.06,0.32-0.32,0.24
		c-0.83-0.27-1.65-0.54-2.49-0.78c-0.32-0.09-0.33-0.32-0.34-0.56c-0.04-1.13-0.06-2.27-0.11-3.4c-0.23-4.6-2.03-8.53-5.11-11.9
		c-2.13-2.33-4.36-4.57-6.26-7.1c-1.79-2.39-3.42-4.87-4.21-7.8c-1.11-4.14-0.36-8.05,1.43-11.84
		C414.32,14.68,414.55,14.15,415.29,13.9z"/>
	<path class="st0" d="M403.11,108.84c2.96-0.04,5.79,0.42,8.58,1.14c1.29,0.33,2.36,1.07,3.29,1.98c0.92,0.89,0.93,2.42,0.08,3.5
		c-0.24,0.3-0.55,0.54-0.79,0.84c-0.26,0.32-0.53,0.34-0.9,0.2c-1.43-0.55-2.89-1.05-4.32-1.61c-4.63-1.8-9.19-1.46-13.69,0.48
		c-0.39,0.17-0.77,0.35-1.16,0.52c-1.47,0.64-2.78-0.22-2.83-1.85c-0.02-0.63,0.26-1.13,0.62-1.6c1.25-1.64,2.91-2.57,4.93-2.95
		C398.98,109.09,401.06,108.79,403.11,108.84z"/>
	<path class="st0" d="M388,13.15c1.04,1.19,1.64,2.5,2.09,3.9c1.24,3.92,1.29,7.82-0.32,11.63c-0.73,1.73-1.73,3.33-2.87,4.84
		c-2.88,3.84-5.63,7.77-7.79,12.08c-1.59,3.17-2.78,6.46-3.13,10.01c-0.02,0.18-0.06,0.37-0.04,0.54c0.19,1.18-0.33,1.88-1.42,2.28
		c-0.54,0.2-1.02,0.55-1.59,0.87c-0.09-1.47-0.01-2.86,0.11-4.24c0.26-2.82,0.86-5.55,2.05-8.14c0.7-1.54,1.62-2.94,2.61-4.3
		c1.13-1.56,2.18-3.17,3.35-4.7c2.35-3.1,4.36-6.43,6.58-9.61c1.76-2.52,2.15-5.3,1.76-8.28c-0.24-1.78-0.74-3.48-1.37-5.15
		C387.81,14.36,387.74,13.81,388,13.15z"/>
	<path class="st0" d="M390.79,59.02c1.1,0.12,2.13,0.45,3.12,0.91c1.67,0.78,3.05,1.92,4.15,3.38c1.87,2.49,3.3,5.18,3.7,8.33
		c0.1,0.75,0.08,1.5,0.05,2.24c-0.09,2.47,0.08,4.94,0.19,7.41c0.02,0.55-0.02,0.83-0.65,0.85c-0.5,0.02-1.01,0.12-1.49,0.26
		c-0.53,0.16-0.66-0.04-0.7-0.53c-0.23-3.28-0.92-6.48-1.93-9.61c-1.41-4.36-3.47-8.41-5.92-12.26c-0.17-0.27-0.35-0.55-0.52-0.82
		C390.79,59.15,390.8,59.1,390.79,59.02z"/>
	<path class="st0" d="M403.16,78.28c-0.3-1.83-0.11-3.68-0.26-5.51c-0.14-1.7,0.48-3.22,1.18-4.71c1.48-3.16,3.52-5.9,6.11-8.23
		c0.74-0.66,1.55-1.17,2.57-1.25c0.2-0.02,0.44-0.09,0.58,0.07c0.17,0.19-0.05,0.37-0.13,0.54c-1.71,3.64-3.54,7.23-5.11,10.93
		c-0.97,2.29-1.43,4.71-1.66,7.18c-0.13,1.41-0.21,2.82-0.28,4.24c-0.02,0.54-0.16,0.8-0.77,0.73c-0.58-0.07-1.17-0.05-1.76-0.04
		c-0.36,0.01-0.5-0.1-0.49-0.48C403.17,80.58,403.16,79.43,403.16,78.28z"/>
	<path class="st0" d="M382.92,96.21c1.33-0.02,2.56,0.43,3.71,1.01c3.97,2.01,7.22,4.82,9.46,8.72c0.32,0.57,0.56,1.16,0.69,1.8
		c0.07,0.31-0.04,0.41-0.3,0.54c-0.62,0.31-1.07,0.3-1.65-0.23c-1.86-1.71-3.75-3.4-5.73-4.97c-0.87-0.69-1.83-1.2-2.82-1.64
		c-1.81-0.81-3.56-1.74-5.29-2.7c-0.21-0.12-0.42-0.24-0.62-0.38c-0.37-0.26-0.73-0.57-0.65-1.08c0.09-0.53,0.53-0.67,0.98-0.77
		C381.43,96.33,382.17,96.21,382.92,96.21z"/>
	<path class="st0" d="M398.07,60.96c0.08-0.21,0.16-0.42,0.25-0.62c0.57-1.2,1.43-2.2,2.29-3.19c0.44-0.5,0.9-0.99,1.3-1.52
		c0.26-0.34,0.49-0.32,0.82-0.16c1.06,0.51,1.94,1.23,2.69,2.12c0.64,0.76,1.15,1.61,1.66,2.46c0.15,0.24,0.14,0.43-0.01,0.66
		c-1.46,2.33-2.91,4.66-4.35,7c-0.18,0.3-0.29,0.4-0.51,0.03c-1.32-2.17-2.66-4.34-4-6.51C398.16,61.15,398.12,61.06,398.07,60.96z"
		/>
	<path class="st0" d="M397.03,17.55c0.03-0.06,0.06-0.14,0.1-0.21c1.01-1.56,1.88-3.21,3.16-4.59c0.05-0.06,0.11-0.12,0.17-0.18
		c1.22-1.25,1.48-1.28,2.75-0.07c0.63,0.59,1.13,1.28,1.48,2.11c0.41,0.96,0.98,1.86,1.51,2.77c0.16,0.27,0.16,0.44-0.04,0.69
		c-1.37,1.67-2.73,3.36-4.08,5.05c-0.25,0.32-0.4,0.35-0.67,0.01c-1.38-1.74-2.77-3.47-4.16-5.2
		C397.15,17.82,397.02,17.72,397.03,17.55z"/>
	<path class="st0" d="M424.72,96.06c0.48-0.01,0.91,0.08,1.15,0.54c0.28,0.56,0.29,1.13-0.04,1.68c-0.24,0.4-0.63,0.62-1.04,0.8
		c-1.39,0.59-2.79,1.16-4.23,1.64c-2.81,0.93-5.25,2.41-6.98,4.88c-0.53,0.76-1,1.57-1.52,2.34c-0.38,0.57-0.92,0.81-1.62,0.72
		c-0.41-0.05-0.49-0.2-0.41-0.59c0.41-2.14,1.44-3.97,2.72-5.69c2.58-3.48,6.15-5.26,10.31-6.04
		C423.6,96.23,424.16,96.15,424.72,96.06z"/>
	<path class="st0" d="M433.53,79.54c0.48,0,0.86,0.02,1.24,0.1c0.99,0.2,1.51,0.64,1.58,1.34c0.09,1.03-0.5,2.06-1.39,2.32
		c-0.6,0.17-1.22,0.29-1.84,0.36c-2.18,0.27-3.89,1.27-5.08,3.14c-0.44,0.68-0.92,1.33-1.35,2.02c-0.23,0.37-0.44,0.39-0.77,0.14
		c-0.24-0.18-0.51-0.32-0.77-0.49c-0.96-0.6-0.98-0.61-0.57-1.69c1.34-3.55,3.68-6.05,7.43-7.04
		C432.53,79.61,433.07,79.52,433.53,79.54z"/>
	<path class="st0" d="M372.49,80.47c2.9,0.02,5.02,1.44,6.84,3.43c0.77,0.84,1.36,1.8,1.89,2.81c0.23,0.43,0.25,0.71-0.23,0.97
		c-0.49,0.28-0.94,0.63-1.4,0.97c-0.26,0.2-0.43,0.17-0.67-0.05c-0.97-0.89-1.77-1.95-2.74-2.83c-1.48-1.34-3.18-2.12-5.19-2.19
		c-0.96-0.03-1.49-0.56-1.52-1.46c-0.04-0.86,0.42-1.36,1.4-1.49C371.43,80.55,371.99,80.52,372.49,80.47z"/>
	<path class="st0" d="M394.6,100.15c-0.98-1.6-1.86-3.05-2.76-4.5c-0.11-0.17-0.13-0.51-0.51-0.32c-0.39,0.19-0.2,0.41-0.1,0.64
		c0.44,1,0.89,2,1.32,3c0.06,0.14,0.27,0.32,0.03,0.48c-0.17,0.11-0.34,0.05-0.5-0.07c-1.29-0.95-2.58-1.89-3.88-2.83
		c-0.18-0.13-0.21-0.25-0.12-0.45c0.53-1.2,1.05-2.41,1.55-3.62c0.1-0.24,0.2-0.25,0.41-0.16c1.12,0.48,2.22,0.99,3.15,1.8
		c1.07,0.93,1.47,2.15,1.55,3.51C394.79,98.41,394.7,99.19,394.6,100.15z"/>
	<path class="st0" d="M413.59,99.25c0.41-1.11,0.84-2.22,1.23-3.34c0.08-0.23,0.4-0.54-0.01-0.73c-0.38-0.17-0.4,0.25-0.52,0.44
		c-0.66,1.04-1.28,2.09-2.01,3.28c-0.23-1.41-0.56-2.64-0.49-3.92c0.03-0.55,0.29-0.98,0.81-1.26c1.09-0.58,2.24-1.03,3.36-1.54
		c0.27-0.12,0.39-0.1,0.45,0.22c0.31,1.46,0.64,2.92,0.97,4.38c0.06,0.25,0.05,0.45-0.23,0.61c-1.16,0.65-2.31,1.32-3.47,1.98
		C413.65,99.32,413.62,99.28,413.59,99.25z"/>
</g>
<path class="st0" d="M403.52,119.86h5.76c2.85,0,5.13,2.08,5.01,4.58l-5.28,109.64l-1.19,24.67c-0.2,4.14-8.42,4.14-8.62,0
	l-1.19-24.67l-5.28-109.64c-0.12-2.5,2.16-4.58,5.01-4.58H403.52z"/>
</svg>
